inDegrees=yes
name=ik_S40_A08_T01
DataType=double
version=3
OpenSimVersion=4.3-2021-08-27-4bc7ad9
endheader
time	pelvis_tilt	pelvis_list	pelvis_rotation	pelvis_tx	pelvis_ty	pelvis_tz	hip_flexion_r	hip_adduction_r	hip_rotation_r	knee_angle_r	knee_angle_r_beta	ankle_angle_r	subtalar_angle_r	mtp_angle_r	hip_flexion_l	hip_adduction_l	hip_rotation_l	knee_angle_l	knee_angle_l_beta	ankle_angle_l	subtalar_angle_l	mtp_angle_l	lumbar_extension	lumbar_bending	lumbar_rotation	arm_flex_r	arm_add_r	arm_rot_r	elbow_flex_r	pro_sup_r	wrist_flex_r	wrist_dev_r	arm_flex_l	arm_add_l	arm_rot_l	elbow_flex_l	pro_sup_l	wrist_flex_l	wrist_dev_l
0	0	0	0	0	0.9399999999999999	0	0	0	0	0	0	0	0	0	0	0	0	0	0	0	0	0	0	0	0	0	0	0	0	89.99999999963507	0	0	0	0	0	0	89.99999999869995	0	0
0.02	-7.02309807833439	-0.327816613157478	28.30554774892073	0	0.9399999999999999	0	2.304608543463712	-1.087081293509593	-0.7756037175172972	3.56962342818589	0.06230168187817113	0	0	0	2.304608543463712	-1.087081293509593	-0.7756037175172972	3.56962342818589	0.06230168187817113	0	0	0	-2.572770728625218	-3.380241555153466	9.91150024663831	13.67919445010302	-3.905744260502298	-0.4556119467827148	45.96893907616776	126.7255740639471	0	0	12.22681331009109	-3.679766769590683	-5.337413941353752	39.31531218957981	107.0541197300535	0	0
0.04	-5.250189596679744	-0.7596473840233072	31.42216631561922	0	0.9399999999999999	0	30.12361149442479	-11.90352812560884	-9.697021359382116	35.74793562340558	0.6239191774193991	0	0	0	30.12361149442479	-11.90352812560884	-9.697021359382116	35.74793562340558	0.6239191774193991	0	0	0	-4.042794164501367	-1.968353174197908	6.891600951403859	13.67764808944323	-3.871952738836808	-0.4794784797147402	45.96497390848855	126.7333652520454	0	0	12.25507359767362	-3.713784338726981	-5.316155333637278	39.26623310388931	107.0101687026405	0	0
0.06	-5.251725208063843	-0.7593007279186483	31.43192011148323	0	0.9399999999999999	0	30.15178748969887	-11.89185117409898	-9.698235526333367	35.77371714862883	0.6243691499207308	0	0	0	30.15178748969887	-11.89185117409898	-9.698235526333367	35.77371714862883	0.6243691499207308	0	0	0	-4.045081724217382	-1.962000105913153	6.88428387284592	13.67579577806541	-3.8791302676929	-0.474817245278547	45.98481751909632	126.6952254918306	0	0	12.25728811417495	-3.705308734222936	-5.329888759316024	39.27943800423678	107.0000766289703	0	0
0.08	-5.259323878680918	-0.7673405384976391	31.44001892413753	0	0.9399999999999999	0	30.16977375645086	-11.88286839415809	-9.699090728057941	35.78973905223982	0.6246487848911796	0	0	0	30.16977375645086	-11.88286839415809	-9.699090728057941	35.78973905223982	0.6246487848911796	0	0	0	-4.05638158758786	-1.961881614719031	6.88106268581284	13.67554605822269	-3.887727147008073	-0.4554241358616462	46.01413655922242	126.659077430121	0	0	12.26718225774515	-3.711365750139833	-5.323268169440253	39.31223596046294	106.9834070964523	0	0
0.1	-5.261943323230705	-0.767962480184164	31.45006506889561	0	0.9399999999999999	0	30.16925874281669	-11.88165991500451	-9.69914297765472	35.78889595362701	0.6246340700444672	0	0	0	30.16925874281669	-11.88165991500451	-9.69914297765472	35.78889595362701	0.6246340700444672	0	0	0	-4.058913348371446	-1.961119921297166	6.879622488648635	13.64255048160349	-3.880646306821266	-0.4270351639499131	46.01135512580029	126.6622193369743	0	-2.155227684594804e-35	12.26866050114505	-3.70011339568843	-5.324808457282058	39.28757334084154	106.979960263344	0	-2.155227684594804e-35
0.12	-5.261779506387448	-0.7712915954449694	31.45422715478536	0	0.9399999999999999	0	30.18226956434285	-11.87443296889105	-9.699803228403921	35.80029519959574	0.6248330244188661	0	0	0	30.18226956434285	-11.87443296889105	-9.699803228403921	35.80029519959574	0.6248330244188661	0	0	0	-4.060971871417832	-1.961771181021136	6.875374259006245	13.63753214380188	-3.884625256608583	-0.399174232890904	46.03327256442885	126.6270108760598	0	0	12.26222093317496	-3.701669521669582	-5.307548574673064	39.27968072739572	106.9511160146377	0	0
0.14	-5.256056315710669	-0.7678045651433492	31.45259003763588	0	0.9399999999999999	0	30.19557461447912	-11.86839741611343	-9.70040310434411	35.8123459473904	0.6250433496452106	0	0	0	30.19557461447912	-11.86839741611343	-9.70040310434411	35.8123459473904	0.6250433496452106	0	0	0	-4.054675252403263	-1.959964823850846	6.878517927777532	13.6169711392727	-3.888560711067629	-0.3938130496226981	46.04293331095285	126.5895716204652	0	0	12.27464279932795	-3.734117056149855	-5.273588855345789	39.26615843685532	106.9193610592542	0	0
0.16	-5.251530745605417	-0.7634122339563971	31.46550808107377	0	0.9399999999999999	0	30.21152874248526	-11.86332333906709	-9.701007417834218	35.8274372784174	0.62530674306014	0	0	0	30.21152874248526	-11.86332333906709	-9.701007417834218	35.8274372784174	0.62530674306014	0	0	0	-4.049054442518583	-1.956186391162877	6.883068023043229	13.60286356997911	-3.869982515021092	-0.4052642830000246	46.02597228434941	126.5265453735953	0	0	12.26558726848295	-3.737390946955341	-5.242027515982476	39.21360339633445	106.9113028102943	0	0
0.18	-5.248360459257787	-0.7580244354305562	31.46466686745307	0	0.9399999999999999	0	30.2191766319907	-11.85917005506325	-9.701387501679607	35.83419720376048	0.6254247260145658	0	0	0	30.2191766319907	-11.85917005506325	-9.701387501679607	35.83419720376048	0.6254247260145658	0	0	0	-4.043740174313289	-1.952454148957941	6.887524408846827	13.59665503499392	-3.885887734562357	-0.3934157883435974	46.02264276424745	126.489506484239	0	0	12.29226281485476	-3.753520067988859	-5.202391941898894	39.20605120330764	106.9071217441547	0	0
0.2	-5.240930148410111	-0.7510146674400797	31.45818036243447	0	0.9399999999999999	0	30.23092015847121	-11.85342396415079	-9.701940023126475	35.84470596486263	0.6256081384961037	0	0	0	30.23092015847121	-11.85342396415079	-9.701940023126475	35.84470596486263	0.6256081384961037	0	0	0	-4.034003925276869	-1.949291014338678	6.89646345678879	13.60006244973975	-3.897720704696845	-0.3862178168456595	45.99253084162767	126.4009454639361	0	0	12.30963479975958	-3.780005928179647	-5.13874536174231	39.15098797314978	106.8902691289499	0	0
0.22	-5.237715469682918	-0.7517717776634484	31.44166710328632	0	0.9399999999999999	0	30.25427751187148	-11.84443107101511	-9.702909149948908	35.86628626697623	0.6259847858215613	0	0	0	30.25427751187148	-11.84443107101511	-9.702909149948908	35.86628626697623	0.6259847858215613	0	0	0	-4.032335664434067	-1.948255751743653	6.900361004083585	13.60622346214834	-3.902150570269744	-0.3354160476388972	45.97067681895307	126.3289638939929	0	0	12.33194070738698	-3.783681808293288	-5.062761878796152	39.11484213873262	106.8321850134436	0	0
0.24	-5.236494843708993	-0.7464726299693345	31.43130450397817	0	0.9399999999999999	0	30.28364715526558	-11.83309531536774	-9.704130947990507	35.89338764651261	0.6264577941263035	0	0	0	30.28364715526558	-11.83309531536774	-9.704130947990507	35.89338764651261	0.6264577941263035	0	0	0	-4.029539115384963	-1.939836153444565	6.903348966427965	13.62191172693678	-3.89627179945919	-0.3199552129139192	45.94662666483465	126.2633300599765	0	0	12.32013425641803	-3.78287563402981	-5.01156404973205	39.07442013018942	106.7148010334185	0	0
0.26	-5.231402640899085	-0.7463622450995886	31.40999256305258	0	0.9399999999999999	0	30.30872776507121	-11.82272546002091	-9.705212960769378	35.91629874043492	0.6268576681504815	0	0	0	30.30872776507121	-11.82272546002091	-9.705212960769378	35.91629874043492	0.6268576681504815	0	0	0	-4.02614046219592	-1.93767132791328	6.894841676197685	13.60391375682024	-3.893081596184847	-0.3454969767653548	45.91737398265141	126.254811293124	0	0	12.30092269838896	-3.804203703241123	-4.950415560211885	39.05892730468633	106.6245633778398	0	0
0.28	-5.225492947732146	-0.7517392272286593	31.39759590126907	0	0.9399999999999999	0	30.33411493642201	-11.81204762947977	-9.70631781723735	35.93943663239317	0.6272615005471237	0	0	0	30.33411493642201	-11.81204762947977	-9.70631781723735	35.93943663239317	0.6272615005471237	0	0	0	-4.024818625985073	-1.940732098569846	6.886469435245178	13.60969500986669	-3.869862001609766	-0.3533071960600063	45.91321475706088	126.2340348748138	0	0	12.29288614996223	-3.826862717595835	-4.91822663160435	39.07610849624292	106.575698037447	0	0
0.3	-5.219595128635855	-0.7526627201490609	31.37529572257905	0	0.9399999999999999	0	30.35405400062614	-11.80275656064884	-9.707232010547333	35.9573827540451	0.6275747194579134	0	0	0	30.35405400062614	-11.80275656064884	-9.707232010547333	35.9573827540451	0.6275747194579134	0	0	0	-4.021021194900357	-1.940948963560329	6.879153587525748	13.58865229017599	-3.868976953564748	-0.3331109579772375	45.94327911821325	126.2008962104753	0	0	12.37252951883445	-3.85130710849492	-4.898054634355377	39.12015215180406	106.5421986070609	0	0
0.32	-5.215878969875455	-0.7603342939766546	31.34640526133225	0	0.9399999999999999	0	30.37928175536815	-11.79721305560417	-9.708048838609203	35.98198016389088	0.6280040252471847	0	0	0	30.37928175536815	-11.79721305560417	-9.708048838609203	35.98198016389088	0.6280040252471847	0	0	0	-4.023041517163098	-1.94367741090951	6.864562006391133	13.60976110084169	-3.836297815926663	-0.2995164293772916	45.95244096522494	126.2077258855148	0	0	12.3697481489026	-3.875439325696057	-4.937203589792299	39.06989932770812	106.4979658465334	0	0
0.34	-5.201722411716311	-0.7657373707837103	31.29976501201246	0	0.9399999999999999	0	30.38522615138378	-11.79475261998796	-9.708304748161622	35.98742498200562	0.6280990552504592	0	0	0	30.38522615138378	-11.79475261998796	-9.708304748161622	35.98742498200562	0.6280990552504592	0	0	0	-4.013538332695058	-1.957569326429774	6.901128521083858	13.59731046203421	-3.822230777485539	-0.3057723397179986	45.98157348809443	126.1496000693591	0	0	12.46098533557486	-3.896845730141319	-4.612503343642945	39.24833244872625	105.9523560590387	0	0
0.36	-5.191563977652741	-0.7731873951042456	31.2798798164359	0	0.9399999999999999	0	30.41214625862778	-11.78430909120762	-9.709426541976226	36.0122520477308	0.6285323692909727	0	0	0	30.41214625862778	-11.78430909120762	-9.709426541976226	36.0122520477308	0.6285323692909727	0	0	0	-4.009571066678282	-1.964721688135843	6.89730396738391	13.60095109188878	-3.785917891230558	-0.2631519119397465	46.00750980702678	126.100261725121	0	0	12.45163745239284	-3.968859869396459	-4.551251537392503	39.27377781211855	105.8990049406477	0	0
